STARTFONT 2.3
FONT -FontForge-Fontdiner Swanky-Book-R-Normal--11-110-72-72-P-70-ISO10646-1
SIZE 11 72 72  4
FONTBOUNDINGBOX 16 18 -3 -6
COMMENT "Generated by fontforge, http://fontforge.sourceforge.net"
COMMENT "Copyright (c) 2010 by Font Diner, Inc. All rights reserved."
STARTPROPERTIES 40
FOUNDRY "FontForge"
FAMILY_NAME "Fontdiner Swanky"
WEIGHT_NAME "Book"
SLANT "R"
SETWIDTH_NAME "Normal"
ADD_STYLE_NAME ""
PIXEL_SIZE 11
POINT_SIZE 110
RESOLUTION_X 72
RESOLUTION_Y 72
SPACING "P"
AVERAGE_WIDTH 70
CHARSET_REGISTRY "ISO10646"
CHARSET_ENCODING "1"
FONTNAME_REGISTRY ""
CHARSET_COLLECTIONS "ISO10646-1"
BITS_PER_PIXEL 4
FONT_NAME "FontdinerSwanky-Regular"
FACE_NAME "Fontdiner Swanky Regular"
COPYRIGHT "Copyright (c) 2010 by Font Diner, Inc. All rights reserved."
FONT_VERSION "1.001"
FONT_ASCENT 9
FONT_DESCENT 2
UNDERLINE_POSITION -1
UNDERLINE_THICKNESS 1
X_HEIGHT 6
CAP_HEIGHT 6
RAW_ASCENT 799
RAW_DESCENT 200
NORM_SPACE 4
RELATIVE_WEIGHT 40
RELATIVE_SETWIDTH 50
SUPERSCRIPT_X 0
SUPERSCRIPT_Y 5
SUPERSCRIPT_SIZE 6
SUBSCRIPT_X 0
SUBSCRIPT_Y 1
SUBSCRIPT_SIZE 6
AVG_LOWERCASE_WIDTH 69
AVG_UPPERCASE_WIDTH 85
ENDPROPERTIES
CHARS 231
STARTCHAR space
ENCODING 32
SWIDTH 320 0
DWIDTH 4 0
BBX 1 1 0 0
BITMAP
00
ENDCHAR
STARTCHAR exclam
ENCODING 33
SWIDTH 305 0
DWIDTH 3 0
BBX 4 11 0 -1
BITMAP
0431
0FF4
0FF1
1FD0
1FA0
2F80
3F50
3E20
5700
BF20
0100
ENDCHAR
STARTCHAR quotedbl
ENCODING 34
SWIDTH 369 0
DWIDTH 4 0
BBX 4 4 0 4
BITMAP
3334
CCBD
BAAC
6657
ENDCHAR
STARTCHAR numbersign
ENCODING 35
SWIDTH 702 0
DWIDTH 8 0
BBX 8 8 0 0
BITMAP
01720710
13F42F10
9FFFFFE7
48F48E41
05E17D21
EFFFFFF4
28C3AC41
05607700
ENDCHAR
STARTCHAR dollar
ENCODING 36
SWIDTH 545 0
DWIDTH 6 0
BBX 6 10 0 -2
BITMAP
00F700
06F914
9D69E7
CE5047
5FFE82
528DFA
BA21EC
99EEB3
10BA00
004400
ENDCHAR
STARTCHAR percent
ENCODING 37
SWIDTH 657 0
DWIDTH 7 0
BBX 8 10 0 -1
BITMAP
00002610
7ED28F10
D5C6E900
6DB6F300
000BB000
002F5000
008D5CB1
00E7C6C6
05E17DD2
02500100
ENDCHAR
STARTCHAR ampersand
ENCODING 38
SWIDTH 668 0
DWIDTH 7 0
BBX 9 11 0 -2
BITMAP
0023000000
0ACBC10000
1F51F30000
0CD7C00000
03FE220000
1CBF946000
8F19FBC200
9F84EF8830
2CFD8FB100
0000660000
0000100000
ENDCHAR
STARTCHAR quotesingle
ENCODING 39
SWIDTH 177 0
DWIDTH 2 0
BBX 2 4 0 4
BITMAP
54
CB
BA
55
ENDCHAR
STARTCHAR parenleft
ENCODING 40
SWIDTH 384 0
DWIDTH 4 0
BBX 5 11 0 -2
BITMAP
006900
08E100
1E8000
5F4000
6F3000
6F3000
4F5000
1F9000
09E100
01A800
000410
ENDCHAR
STARTCHAR parenright
ENCODING 41
SWIDTH 375 0
DWIDTH 4 0
BBX 4 12 0 -2
BITMAP
1000
6910
0BB0
05F4
01F8
00E9
00FA
02F8
06F5
0CC0
5C20
5000
ENDCHAR
STARTCHAR asterisk
ENCODING 42
SWIDTH 640 0
DWIDTH 7 0
BBX 7 7 0 0
BITMAP
0990B300
07F6FA00
76DFD450
DFFFFFE0
43DED220
0AE5FA00
04607100
ENDCHAR
STARTCHAR plus
ENCODING 43
SWIDTH 607 0
DWIDTH 7 0
BBX 7 7 0 0
BITMAP
007C3000
008F3000
89CF9730
DFFFFF70
217F1000
007F0000
00390000
ENDCHAR
STARTCHAR comma
ENCODING 44
SWIDTH 226 0
DWIDTH 3 0
BBX 3 4 0 -3
BITMAP
7B20
BF50
2C10
1000
ENDCHAR
STARTCHAR hyphen
ENCODING 45
SWIDTH 549 0
DWIDTH 6 0
BBX 6 3 0 2
BITMAP
3BA983
5FFFF5
121100
ENDCHAR
STARTCHAR period
ENCODING 46
SWIDTH 226 0
DWIDTH 3 0
BBX 3 2 0 -1
BITMAP
8D20
9E30
ENDCHAR
STARTCHAR slash
ENCODING 47
SWIDTH 600 0
DWIDTH 7 0
BBX 8 11 -1 -1
BITMAP
00000071
000006FB
00001EF3
00008F90
0002FE10
000BF500
004FB000
00DF2000
07F70000
1ED00000
18400000
ENDCHAR
STARTCHAR zero
ENCODING 48
SWIDTH 740 0
DWIDTH 8 0
BBX 8 7 0 0
BITMAP
03ADDB30
2ED53BF3
AF4002FB
BF1000FD
9F4002FB
2EC33BF3
02AEEA30
ENDCHAR
STARTCHAR one
ENCODING 49
SWIDTH 503 0
DWIDTH 6 0
BBX 7 9 -1 -1
BITMAP
037AD100
158FF000
000EF000
000DE000
000DE000
000CE000
000BD000
017EE710
04555540
ENDCHAR
STARTCHAR two
ENCODING 50
SWIDTH 638 0
DWIDTH 7 0
BBX 7 10 0 -1
BITMAP
20000000
849DC600
6FB49F60
4C001FA0
25006F60
013AF830
07F91280
7F822970
EFFFFF60
22344520
ENDCHAR
STARTCHAR three
ENCODING 51
SWIDTH 620 0
DWIDTH 7 0
BBX 8 10 -1 -1
BITMAP
01000000
0828A810
09FA7ED1
067006F5
02122AF2
000AFFD1
04101BF7
089009F7
0BCDBFC1
14056400
ENDCHAR
STARTCHAR four
ENCODING 52
SWIDTH 606 0
DWIDTH 7 0
BBX 8 10 -1 -1
BITMAP
00000110
00000B10
00009F10
0006FF10
004EDF01
03E5AF26
1DEBEFD5
1332AE65
00009E03
0039BB81
ENDCHAR
STARTCHAR five
ENCODING 53
SWIDTH 610 0
DWIDTH 7 0
BBX 7 9 0 -1
BITMAP
469BDF30
DEA86D10
AC220600
8FFFE600
4503DF30
20009F50
8922DF20
ABFFF700
20352000
ENDCHAR
STARTCHAR six
ENCODING 54
SWIDTH 619 0
DWIDTH 7 0
BBX 7 10 0 -1
BITMAP
00000500
01794C00
0CFCEF00
6F801920
BFEED810
EF706F70
EE000EB0
CF000FA0
5F939F30
04AB9300
ENDCHAR
STARTCHAR seven
ENCODING 55
SWIDTH 598 0
DWIDTH 7 0
BBX 8 9 0 -1
BITMAP
BCBBA991
9D78CFB0
4900CF50
0401FE00
0004F800
0008F200
000CB000
018FB100
05778820
ENDCHAR
STARTCHAR eight
ENCODING 56
SWIDTH 642 0
DWIDTH 7 0
BBX 8 9 0 -1
BITMAP
029B9300
2EC4AF30
7F503F90
4F806F60
1EFEFF20
BF927FD0
FF200FF1
AF806FC0
08DED910
ENDCHAR
STARTCHAR nine
ENCODING 57
SWIDTH 610 0
DWIDTH 7 0
BBX 7 10 0 -2
BITMAP
06BDA200
7F73BD10
DE004F60
EE005F90
8FA6DF90
27CDCF60
5811CE10
3FEEF600
18463000
01000000
ENDCHAR
STARTCHAR colon
ENCODING 58
SWIDTH 223 0
DWIDTH 2 0
BBX 3 5 0 -1
BITMAP
7910
DF20
1100
AC10
BD20
ENDCHAR
STARTCHAR semicolon
ENCODING 59
SWIDTH 228 0
DWIDTH 3 0
BBX 3 7 0 -3
BITMAP
7910
CF30
0100
8A10
CF30
3B00
2000
ENDCHAR
STARTCHAR less
ENCODING 60
SWIDTH 563 0
DWIDTH 6 0
BBX 7 8 0 0
BITMAP
00000100
00005D30
003BFF60
19FFB300
8FF40000
04DC2000
0008E400
00003B00
ENDCHAR
STARTCHAR equal
ENCODING 61
SWIDTH 531 0
DWIDTH 6 0
BBX 6 6 0 0
BITMAP
110000
FFFEE9
BBAA96
9AABB8
CDEFFB
000011
ENDCHAR
STARTCHAR greater
ENCODING 62
SWIDTH 576 0
DWIDTH 6 0
BBX 7 8 0 0
BITMAP
10000000
AA200000
DFE70000
17EFD500
001AFE30
006F9100
09D40000
68000000
ENDCHAR
STARTCHAR question
ENCODING 63
SWIDTH 592 0
DWIDTH 7 0
BBX 7 11 0 -1
BITMAP
20000000
7BA96100
9636EC10
40006F60
00007F50
0689FC10
09F85000
0AC00000
37200000
BF900000
14100000
ENDCHAR
STARTCHAR at
ENCODING 64
SWIDTH 792 0
DWIDTH 9 0
BBX 9 9 0 -1
BITMAP
0003551000
05EB89D600
4F58AA3E50
C95D0B79D0
F62A8C87F0
E88D2D77D0
8E5CAE6B70
0AD516C800
0025630000
ENDCHAR
STARTCHAR A
ENCODING 65
SWIDTH 788 0
DWIDTH 9 0
BBX 13 11 -2 -3
BITMAP
00044430000000
00018EF3000000
000009FA000000
00002DCF300000
0000A65FA00000
0003FBAFF30000
000A8659FA0000
028E1001EF2000
289AA2009FC510
00000001DDA620
00000003200000
ENDCHAR
STARTCHAR B
ENCODING 66
SWIDTH 774 0
DWIDTH 9 0
BBX 10 10 -1 -2
BITMAP
4444331000
2AFFDDFD60
00DF1019F5
00CF1019F5
00BFCCEE70
009F87CF70
008F500EF2
007F64AFC0
07EFDB9500
2310000000
ENDCHAR
STARTCHAR C
ENCODING 67
SWIDTH 766 0
DWIDTH 8 0
BBX 9 9 0 -1
BITMAP
0016861430
07EEBBEE10
4FD2005D00
AF70000600
BF50000000
9F70000200
3FD1001A00
06EE99DC00
0027983210
ENDCHAR
STARTCHAR D
ENCODING 68
SWIDTH 833 0
DWIDTH 9 0
BBX 11 9 -1 -1
BITMAP
455555410000
05CFFBCF9100
002FE005FA00
001FE000DF10
000FD000BF20
000EC000DF00
000DB006F700
018FFDED7000
044322100000
ENDCHAR
STARTCHAR E
ENCODING 69
SWIDTH 781 0
DWIDTH 9 0
BBX 10 9 -1 -1
BITMAP
36789ABCD2
04AFB433F1
005FA050A1
004F92B030
003FEEB020
003FA7A070
002F8050C0
03AFDAABD0
1444333320
ENDCHAR
STARTCHAR F
ENCODING 70
SWIDTH 731 0
DWIDTH 8 0
BBX 9 9 -1 -1
BITMAP
25679ABC90
04BFB438B0
006F9031A0
005F838060
005FEE8010
004F997000
004F705000
006F900000
1799982000
ENDCHAR
STARTCHAR G
ENCODING 71
SWIDTH 828 0
DWIDTH 9 0
BBX 10 10 0 -1
BITMAP
0000000010
0026873B10
08FEABFF00
5FE2004E00
AF80000600
BF604ABBA4
9F8000AF20
3FE200BF30
05EEABDA50
0015640010
ENDCHAR
STARTCHAR H
ENCODING 72
SWIDTH 797 0
DWIDTH 9 0
BBX 11 9 -1 -1
BITMAP
000016AAA710
4BCCA35FB000
00EF003FA000
00EF003F9000
00DF889F9000
00DF877F8000
00CE002F8000
00CE04BFD720
39DEA4000000
ENDCHAR
STARTCHAR I
ENCODING 73
SWIDTH 445 0
DWIDTH 5 0
BBX 7 9 -1 -1
BITMAP
38888830
019FB100
006F8000
005F8000
004F8000
004F7000
003F7000
003F6000
16CED820
ENDCHAR
STARTCHAR J
ENCODING 74
SWIDTH 718 0
DWIDTH 8 0
BBX 10 11 -1 -2
BITMAP
0000000001
0002579CA3
00246AF900
000003FA00
000000FD00
000000DE00
000000CF00
5DF910CE00
03F302FA00
009D9DC200
0003530000
ENDCHAR
STARTCHAR K
ENCODING 75
SWIDTH 934 0
DWIDTH 10 0
BBX 13 10 -1 -1
BITMAP
00000010000000
28DEE846666510
006FA004FB5000
005F918E600000
005FCDF3000000
004FC3DC100000
003F803FA00000
002F7007F80000
05CFE940CF5000
01111127DEEB50
ENDCHAR
STARTCHAR L
ENCODING 76
SWIDTH 712 0
DWIDTH 8 0
BBX 9 9 -1 0
BITMAP
3899A95000
007FD20000
004FB00000
003FB00000
003FB00030
002FB00090
001FA003B0
002FC54AB0
17CCBBA970
ENDCHAR
STARTCHAR M
ENCODING 77
SWIDTH 1033 0
DWIDTH 11 0
BBX 13 9 -1 -1
BITMAP
29CCB0002EEB50
007FF600AFF000
005FFD03FFE000
004ECF5B9FD000
003F4FEE3FC000
002F0AF72FC000
000F12D12FB000
027F8323AFE830
24444430000010
ENDCHAR
STARTCHAR N
ENCODING 78
SWIDTH 840 0
DWIDTH 9 0
BBX 12 9 -1 -1
BITMAP
39CB939EED71
007FF801F100
004EFF50F100
004B6FE3F100
004C08FDF000
004C00AFF000
006D101CF000
3AEEEA42D000
000000002000
ENDCHAR
STARTCHAR O
ENCODING 79
SWIDTH 808 0
DWIDTH 9 0
BBX 9 8 0 -1
BITMAP
006ABA6000
1DF959FB00
9F8000AF70
BF40006FA0
AF60008F80
3ED204ED20
03BFFFA200
0000100000
ENDCHAR
STARTCHAR P
ENCODING 80
SWIDTH 746 0
DWIDTH 8 0
BBX 10 9 -1 -1
BITMAP
1000000000
29FFEEC930
007F6139F2
006F5018E2
006FEDC820
006F800000
006F900000
04CFD61000
2555443000
ENDCHAR
STARTCHAR Q
ENCODING 81
SWIDTH 789 0
DWIDTH 9 0
BBX 10 12 0 -4
BITMAP
0000200000
03BFFF9100
2EE305FC00
9F6000AF40
AF50009F50
6F8000CF20
0BF75AF700
006ADF4000
00006F8100
00005FFE93
0005C84000
0001000000
ENDCHAR
STARTCHAR R
ENCODING 82
SWIDTH 826 0
DWIDTH 9 0
BBX 13 11 -1 -3
BITMAP
11100000000000
18EFFEDA400000
005F7027F40000
005F7028E30000
004FEDFB100000
004FA0BE200000
004FB03FB00000
04CFE829F70000
14444332FFDA30
00000005E93000
00000015100000
ENDCHAR
STARTCHAR S
ENCODING 83
SWIDTH 661 0
DWIDTH 7 0
BBX 8 9 0 -1
BITMAP
00220030
2CDBEAC0
CF1018C0
CFD84040
2CFFFD40
2126CFE1
49000EF1
5BDACE60
40144100
ENDCHAR
STARTCHAR T
ENCODING 84
SWIDTH 754 0
DWIDTH 8 0
BBX 8 9 0 -1
BITMAP
36555554
7D9FFACB
660EF13A
510DF006
100DF001
000CE000
000CE000
03AFFA30
02233330
ENDCHAR
STARTCHAR U
ENCODING 85
SWIDTH 725 0
DWIDTH 8 0
BBX 10 9 -1 -1
BITMAP
1000013332
29EC715EA1
01FE000C50
02FD000C50
02FD000B40
02FE000B30
00EF402E00
004EFCE500
0001431000
ENDCHAR
STARTCHAR V
ENCODING 86
SWIDTH 786 0
DWIDTH 9 0
BBX 12 9 -2 -1
BITMAP
000368231000
16BFE101AEA4
000CF4006900
0005FA01D200
0000DF278000
00005FAD1000
00000DF80000
000006E10000
000000500000
ENDCHAR
STARTCHAR W
ENCODING 87
SWIDTH 1026 0
DWIDTH 11 0
BBX 15 9 -2 -1
BITMAP
0000012001000000
16CEF922228CB830
001FE10990088000
0009F61EF20D1000
0003FB8FFB5A0000
0000CFE8DFD40000
00005FE16FD00000
00000E800D800000
0000071006200000
ENDCHAR
STARTCHAR X
ENCODING 88
SWIDTH 860 0
DWIDTH 9 0
BBX 12 8 -1 -1
BITMAP
1579A7334530
004EE22EC500
0005FCBA1000
00008FD00000
0004EDF80000
006E41DF5000
4BED506FE710
000003777651
ENDCHAR
STARTCHAR Y
ENCODING 89
SWIDTH 848 0
DWIDTH 9 0
BBX 12 9 -2 -1
BITMAP
000012100000
16CFF8026654
0005FC106D61
00006FA2C200
000008FE3000
000000E90000
000000FB0000
000001FD1000
00004ABBA610
ENDCHAR
STARTCHAR Z
ENCODING 90
SWIDTH 685 0
DWIDTH 8 0
BBX 8 7 0 0
BITMAP
6899AAA7
9B66BFD1
4604FF30
133EF603
01DF9055
0CFD32D4
7CCCCCC3
ENDCHAR
STARTCHAR bracketleft
ENCODING 91
SWIDTH 380 0
DWIDTH 4 0
BBX 5 11 0 -2
BITMAP
5FFB40
5F8000
4F7000
4F6000
3F6000
3F6000
2F6000
2F5000
1F5000
1FC400
055510
ENDCHAR
STARTCHAR backslash
ENCODING 92
SWIDTH 680 0
DWIDTH 7 0
BBX 8 11 0 -1
BITMAP
17000000
AF700000
3FE10000
08F90000
01DF3000
005FC000
000AF500
0002ED10
00007F80
00000CE2
00000381
ENDCHAR
STARTCHAR bracketright
ENCODING 93
SWIDTH 371 0
DWIDTH 4 0
BBX 5 11 -1 -2
BITMAP
29FF90
003F90
002F90
002F80
001F80
001F70
001F70
001F60
000F60
029F60
045520
ENDCHAR
STARTCHAR asciicircum
ENCODING 94
SWIDTH 671 0
DWIDTH 7 0
BBX 8 7 0 3
BITMAP
00060000
003F5000
00CFE100
06FCD900
1EF33E40
9FA005D0
8C300052
ENDCHAR
STARTCHAR underscore
ENCODING 95
SWIDTH 840 0
DWIDTH 9 0
BBX 10 3 0 -2
BITMAP
BBCCCCCDD3
FFFFFFFFF3
1111222231
ENDCHAR
STARTCHAR grave
ENCODING 96
SWIDTH 707 0
DWIDTH 8 0
BBX 3 3 3 6
BITMAP
7D00
4F30
0620
ENDCHAR
STARTCHAR a
ENCODING 97
SWIDTH 572 0
DWIDTH 6 0
BBX 7 8 0 -1
BITMAP
00010000
1ADDC200
6F30E900
2943DB00
7F88FA00
AF34F900
28ACFB20
00013320
ENDCHAR
STARTCHAR b
ENCODING 98
SWIDTH 723 0
DWIDTH 8 0
BBX 10 11 -2 -2
BITMAP
0000210000
17DFF30000
001DF20000
000CF20000
000BF10000
000AF35410
000AFBAEF5
0009E003FC
0009D003F9
001CE8AE91
0189764100
ENDCHAR
STARTCHAR c
ENCODING 99
SWIDTH 589 0
DWIDTH 6 0
BBX 7 7 0 -1
BITMAP
00365000
09E9DC00
6F609F20
AF300200
8F600330
1EF99C00
017A7100
ENDCHAR
STARTCHAR d
ENCODING 100
SWIDTH 713 0
DWIDTH 8 0
BBX 9 11 0 -2
BITMAP
0001787400
000007FA00
000005F800
000005F600
002426F500
09FCDEF300
5F7008F100
8F2009E000
4F910AC000
04CEDFB100
000008A730
ENDCHAR
STARTCHAR e
ENCODING 101
SWIDTH 593 0
DWIDTH 7 0
BBX 7 6 0 -1
BITMAP
05DFD400
4F81AE10
9F98AF50
8F866620
2EC66700
028A6000
ENDCHAR
STARTCHAR f
ENCODING 102
SWIDTH 507 0
DWIDTH 6 0
BBX 8 16 -1 -5
BITMAP
00017710
000CB9D0
004F45F3
006F3140
007F3000
07AFA830
068FB730
002F9000
000FB000
000DC000
000BE000
0009F100
2608F100
7F19E000
2E9E6000
01530000
ENDCHAR
STARTCHAR g
ENCODING 103
SWIDTH 606 0
DWIDTH 7 0
BBX 8 13 0 -6
BITMAP
00003CB0
0168DBF2
2EA5DB20
9F106F40
AE004F50
5F50AE10
1CECB200
4FD97300
3EC9CF60
DD000CE0
EC000BE0
5FA6AF50
01576100
ENDCHAR
STARTCHAR h
ENCODING 104
SWIDTH 678 0
DWIDTH 7 0
BBX 11 11 -2 -1
BITMAP
001351000000
16CFF2000000
000DF1000000
000DF1000000
000CF0000000
000BF6630000
000BF88EA000
000AD009F200
000AC008F100
005DE608D000
0011005AB810
ENDCHAR
STARTCHAR i
ENCODING 105
SWIDTH 393 0
DWIDTH 4 0
BBX 5 9 0 0
BITMAP
03A300
09F900
028200
6AB600
05F800
03F700
03F500
02F400
4DFD40
ENDCHAR
STARTCHAR j
ENCODING 106
SWIDTH 385 0
DWIDTH 4 0
BBX 5 12 -1 -4
BITMAP
02EB00
03FC00
003410
17DF50
004F60
003F80
001FA0
000EB0
000CC0
8A0BB0
9C2D80
18B700
ENDCHAR
STARTCHAR k
ENCODING 107
SWIDTH 749 0
DWIDTH 8 0
BBX 11 10 -1 -1
BITMAP
49BC30000000
00DF30000000
00CF37EFC400
00BF24D50000
00AF8F300000
009FCE900000
008F17F30000
007F00CC0000
06DFB43F9400
1110019A7410
ENDCHAR
STARTCHAR l
ENCODING 108
SWIDTH 369 0
DWIDTH 4 0
BBX 6 11 -1 -1
BITMAP
466610
04DF30
00BF20
00BF20
00AF10
009F10
009F00
008F00
007E00
008E10
07CBA2
ENDCHAR
STARTCHAR m
ENCODING 109
SWIDTH 990 0
DWIDTH 11 0
BBX 13 6 -1 0
BITMAP
49BE9CA48B6000
03CF97FF9BF300
008F00BC02F500
007D00A903F300
04AB62CA29B920
00001555300000
ENDCHAR
STARTCHAR n
ENCODING 110
SWIDTH 643 0
DWIDTH 7 0
BBX 9 6 -1 0
BITMAP
49BE9BA200
03CF97FA00
008F00BC00
007D00AA00
04AB62CB00
0000155530
ENDCHAR
STARTCHAR o
ENCODING 111
SWIDTH 705 0
DWIDTH 8 0
BBX 8 7 0 -1
BITMAP
00133100
1AEBBE80
AF3006F7
DE0003F9
9F4008F5
08DCDC50
00010000
ENDCHAR
STARTCHAR p
ENCODING 112
SWIDTH 723 0
DWIDTH 8 0
BBX 9 10 -1 -3
BITMAP
0001000000
6CEF343000
00CFB9DC20
00BF101EB0
00AF100DC0
009F648F60
008F9BA500
007F200000
008F500000
2899860000
ENDCHAR
STARTCHAR q
ENCODING 113
SWIDTH 682 0
DWIDTH 8 0
BBX 9 10 0 -3
BITMAP
0000033320
02677FE710
4FB69FA000
CD002F9000
CD002F8000
4FB7AF7000
02787F7000
00003F6000
00029FA200
0004455620
ENDCHAR
STARTCHAR r
ENCODING 114
SWIDTH 595 0
DWIDTH 7 0
BBX 8 8 -1 -1
BITMAP
00254251
29EFDFFC
005FA197
003F7000
002F6000
001F9100
05DDB930
01000000
ENDCHAR
STARTCHAR s
ENCODING 115
SWIDTH 533 0
DWIDTH 6 0
BBX 6 8 0 -1
BITMAP
036403
6E8BC7
BD3066
5FFD72
439EF9
9A21EB
99DEC3
100000
ENDCHAR
STARTCHAR t
ENCODING 116
SWIDTH 422 0
DWIDTH 5 0
BBX 6 11 -1 -1
BITMAP
000B10
002F00
04CE10
1BFFFD
00FA00
01F900
02F800
04F601
04F727
01DFF3
001420
ENDCHAR
STARTCHAR u
ENCODING 117
SWIDTH 614 0
DWIDTH 7 0
BBX 9 7 -1 -1
BITMAP
4663333200
08F619F800
05F403F500
05F403F300
03F607F100
009FEDF710
0000126300
ENDCHAR
STARTCHAR v
ENCODING 118
SWIDTH 639 0
DWIDTH 7 0
BBX 10 7 -2 -1
BITMAP
158AB52100
017F918FD6
000CF12D10
0003F8A700
0000AED100
00002E7000
0000061000
ENDCHAR
STARTCHAR w
ENCODING 119
SWIDTH 805 0
DWIDTH 9 0
BBX 13 7 -2 0
BITMAP
00000100000000
16DFB3515CC610
002FC0C70E3000
000AF6FE6B0000
0003FFAFF40000
0000BD0CC00000
00003605500000
ENDCHAR
STARTCHAR x
ENCODING 120
SWIDTH 717 0
DWIDTH 8 0
BBX 10 8 -1 -1
BITMAP
0000020000
38CD854552
007FA3FA30
0009FE6000
0003FF4000
015E6CE200
168974FD83
0000154210
ENDCHAR
STARTCHAR y
ENCODING 121
SWIDTH 655 0
DWIDTH 7 0
BBX 8 11 -1 -5
BITMAP
29404532
05FD08FD
06F901FC
09F601FC
06FC56FB
007BBAFA
000002FA
001003F9
06F105F6
05E21CE1
007DDA20
ENDCHAR
STARTCHAR z
ENCODING 122
SWIDTH 549 0
DWIDTH 6 0
BBX 7 7 0 -1
BITMAP
79AABB20
994AF800
734FC000
22EE2500
1CF51B00
7EFEED00
00012200
ENDCHAR
STARTCHAR braceleft
ENCODING 123
SWIDTH 708 0
DWIDTH 8 0
BBX 6 11 1 -2
BITMAP
04FFC4
04F900
03F700
03F700
06F700
6CF600
02F600
01F600
01F600
00FC40
004552
ENDCHAR
STARTCHAR bar
ENCODING 124
SWIDTH 304 0
DWIDTH 3 0
BBX 3 11 0 -1
BITMAP
0320
3F90
3F90
3F80
3F80
3F80
2F80
2F70
2F70
2F70
1C50
ENDCHAR
STARTCHAR braceright
ENCODING 125
SWIDTH 517 0
DWIDTH 6 0
BBX 6 11 0 -2
BITMAP
5CFF30
00AF20
009F20
008F20
008F50
008FB6
008F00
007F00
007E00
05DE00
255400
ENDCHAR
STARTCHAR asciitilde
ENCODING 126
SWIDTH 466 0
DWIDTH 5 0
BBX 6 3 0 2
BITMAP
464041
FFFFF2
615860
ENDCHAR
STARTCHAR uni00A0
ENCODING 160
SWIDTH 320 0
DWIDTH 4 0
BBX 1 1 0 0
BITMAP
00
ENDCHAR
STARTCHAR exclamdown
ENCODING 161
SWIDTH 305 0
DWIDTH 3 0
BBX 4 10 0 -4
BITMAP
09E3
05A1
0980
0DA0
0F90
3F90
6F80
9F70
BF70
4520
ENDCHAR
STARTCHAR cent
ENCODING 162
SWIDTH 417 0
DWIDTH 5 0
BBX 6 10 -1 -2
BITMAP
003D30
003F30
04D8D3
0D7097
1F4000
0E7004
05FBC3
003F30
003F30
001200
ENDCHAR
STARTCHAR sterling
ENCODING 163
SWIDTH 658 0
DWIDTH 7 0
BBX 8 9 0 -1
BITMAP
00032031
02DEEBD0
0AF10AD0
BEE99290
89F97121
CDFED324
37F66194
0BFDDEF3
14456671
ENDCHAR
STARTCHAR currency
ENCODING 164
SWIDTH 358 0
DWIDTH 4 0
BBX 4 4 0 2
BITMAP
8777
8DC8
6CC6
A779
ENDCHAR
STARTCHAR yen
ENCODING 165
SWIDTH 796 0
DWIDTH 9 0
BBX 10 8 -1 0
BITMAP
0012200000
5BFA018884
008F405B20
0009E8A000
0016DE5100
002ADEA300
0016BF8200
0038CDA510
ENDCHAR
STARTCHAR brokenbar
ENCODING 166
SWIDTH 304 0
DWIDTH 3 0
BBX 3 11 0 -1
BITMAP
0320
3F90
3F80
3F80
2B50
0000
1520
2F70
2F70
2F70
1C50
ENDCHAR
STARTCHAR section
ENCODING 167
SWIDTH 646 0
DWIDTH 7 0
BBX 7 13 0 -3
BITMAP
02894020
2E76CA30
7F100B30
6FD61110
0BFFE700
3F7AFF70
8F203FA0
5FE88F50
07FFFB00
2128EF70
5A002FA0
6DD89F40
40466200
ENDCHAR
STARTCHAR dieresis
ENCODING 168
SWIDTH 708 0
DWIDTH 8 0
BBX 4 2 2 9
BITMAP
3232
9696
ENDCHAR
STARTCHAR copyright
ENCODING 169
SWIDTH 700 0
DWIDTH 8 0
BBX 8 8 0 0
BITMAP
00355200
1BD88D70
AA49A3D5
E3C2438A
E3D2028A
A95C93D5
1CA67D70
00476200
ENDCHAR
STARTCHAR ordfeminine
ENCODING 170
SWIDTH 399 0
DWIDTH 4 0
BBX 6 5 -1 4
BITMAP
03A920
0C79B0
09BCC0
1F9BB0
036AA3
ENDCHAR
STARTCHAR guillemotleft
ENCODING 171
SWIDTH 424 0
DWIDTH 5 0
BBX 5 7 0 -1
BITMAP
011020
095870
5E4E10
CABB00
4E4E20
085670
001010
ENDCHAR
STARTCHAR logicalnot
ENCODING 172
SWIDTH 541 0
DWIDTH 6 0
BBX 7 6 0 0
BITMAP
50000500
BBAA9A00
BDDCEA00
60007900
00007B00
00003420
ENDCHAR
STARTCHAR sfthyphen
ENCODING 173
SWIDTH 530 0
DWIDTH 6 0
BBX 6 3 0 2
BITMAP
BBA996
FFFFFB
221100
ENDCHAR
STARTCHAR registered
ENCODING 174
SWIDTH 700 0
DWIDTH 8 0
BBX 8 8 0 0
BITMAP
00244100
0AEAAD60
9B4757E4
E42F8889
E30D008A
A83C61C5
1D956C90
00587300
ENDCHAR
STARTCHAR macron
ENCODING 175
SWIDTH 705 0
DWIDTH 8 0
BBX 4 3 2 7
BITMAP
1665
3FFC
0111
ENDCHAR
STARTCHAR degree
ENCODING 176
SWIDTH 364 0
DWIDTH 4 0
BBX 4 3 0 5
BITMAP
1BB1
6A96
2DD2
ENDCHAR
STARTCHAR plusminus
ENCODING 177
SWIDTH 607 0
DWIDTH 7 0
BBX 7 7 0 0
BITMAP
008E3000
67BF7520
BFFFFF60
339F3210
005D0000
8DCBBA30
9DDDCC40
ENDCHAR
STARTCHAR twosuperior
ENCODING 178
SWIDTH 440 0
DWIDTH 5 0
BBX 5 6 0 4
BITMAP
559700
7C6D70
531D80
25D960
7F7790
BDDE70
ENDCHAR
STARTCHAR threesuperior
ENCODING 179
SWIDTH 442 0
DWIDTH 5 0
BBX 5 7 0 3
BITMAP
414200
8EBF40
540C80
14FF60
640EA0
9DCE40
213100
ENDCHAR
STARTCHAR acute
ENCODING 180
SWIDTH 694 0
DWIDTH 8 0
BBX 3 3 3 8
BITMAP
2710
7E10
7600
ENDCHAR
STARTCHAR mu
ENCODING 181
SWIDTH 1000 0
DWIDTH 11 0
BBX 9 9 0 -3
BITMAP
4663333200
08F619F800
04F403F500
04F303F300
04F607F000
04FFEDF710
03F4126300
03F3000000
02D2000000
ENDCHAR
STARTCHAR paragraph
ENCODING 182
SWIDTH 782 0
DWIDTH 9 0
BBX 10 9 -1 -1
BITMAP
0000223333
04BEEEEE71
2F81A99900
0CC5B9A800
0049EEE800
0000A8A800
0000B8C800
0004DFFF91
0045443221
ENDCHAR
STARTCHAR periodcentered
ENCODING 183
SWIDTH 226 0
DWIDTH 3 0
BBX 3 3 0 3
BITMAP
0100
BF30
7B20
ENDCHAR
STARTCHAR cedilla
ENCODING 184
SWIDTH 780 0
DWIDTH 9 0
BBX 3 4 3 -2
BITMAP
1400
9B10
3980
AE40
ENDCHAR
STARTCHAR onesuperior
ENCODING 185
SWIDTH 390 0
DWIDTH 4 0
BBX 4 7 0 3
BITMAP
0252
5BF4
04F3
03F3
02F2
19F7
1222
ENDCHAR
STARTCHAR ordmasculine
ENCODING 186
SWIDTH 449 0
DWIDTH 5 0
BBX 6 5 -1 4
BITMAP
004640
0CB6CA
2F306F
0BB6D9
004530
ENDCHAR
STARTCHAR guillemotright
ENCODING 187
SWIDTH 415 0
DWIDTH 5 0
BBX 5 7 0 -1
BITMAP
202000
B3A500
6D5E20
1F6E70
7C5D10
B2A300
101000
ENDCHAR
STARTCHAR onequarter
ENCODING 188
SWIDTH 918 0
DWIDTH 10 0
BBX 10 12 0 -2
BITMAP
0252000350
5BF4000BD0
04F3005F40
03F301DA00
02F208E120
19F72F62B0
1222BC1CC0
0004F3AEC5
000D88ECEA
007D144AC7
01E4016CD6
0040000000
ENDCHAR
STARTCHAR onehalf
ENCODING 189
SWIDTH 1007 0
DWIDTH 11 0
BBX 11 12 0 -2
BITMAP
025200035000
5BF4000BD000
04F3005F4000
03F301DA0000
02F208E10000
19F72F700000
1222BC4BEE60
0004F32C18D0
000D80153DA0
007D100AD590
01E4007FBBC0
004000467760
ENDCHAR
STARTCHAR threequarters
ENCODING 190
SWIDTH 936 0
DWIDTH 10 0
BBX 10 12 0 -2
BITMAP
4142000170
8EBF4008F2
540C802F70
14FF60BD00
640EA5F410
9DCE5D90C0
21317E1AF0
0002E57EF5
000AB5FBFB
004F2447E8
00C7005BE7
0040000000
ENDCHAR
STARTCHAR questiondown
ENCODING 191
SWIDTH 568 0
DWIDTH 6 0
BBX 8 11 -1 -4
BITMAP
00000420
00003FF1
00000660
00007E10
0036DE00
08FB8900
0FC00000
1FC00012
07F934C1
0038A9C0
00000020
ENDCHAR
STARTCHAR Agrave
ENCODING 192
SWIDTH 788 0
DWIDTH 9 0
BBX 13 14 -2 -3
BITMAP
00001C70000000
00000BC0000000
00000250000000
00044430000000
00018EF3000000
000009FA000000
00002DCF300000
0000A65FA00000
0003FBAFF30000
000A8659FA0000
028E1001EF2000
289AA2009FC510
00000001DDA620
00000003200000
ENDCHAR
STARTCHAR Aacute
ENCODING 193
SWIDTH 788 0
DWIDTH 9 0
BBX 13 14 -2 -3
BITMAP
00000082000000
000002F5000000
000004A0000000
00044430000000
00018EF3000000
000009FA000000
00002DCF300000
0000A65FA00000
0003FBAFF30000
000A8659FA0000
028E1001EF2000
289AA2009FC510
00000001DDA620
00000003200000
ENDCHAR
STARTCHAR Acircumflex
ENCODING 194
SWIDTH 788 0
DWIDTH 9 0
BBX 13 14 -2 -3
BITMAP
00000010000000
000005E2000000
00002EBC100000
00047634100000
00018EF3000000
000009FA000000
00002DCF300000
0000A65FA00000
0003FBAFF30000
000A8659FA0000
028E1001EF2000
289AA2009FC510
00000001DDA620
00000003200000
ENDCHAR
STARTCHAR Atilde
ENCODING 195
SWIDTH 788 0
DWIDTH 9 0
BBX 13 13 -2 -3
BITMAP
00001865100000
00004BEF100000
00045431000000
00018EF3000000
000009FA000000
00002DCF300000
0000A65FA00000
0003FBAFF30000
000A8659FA0000
028E1001EF2000
289AA2009FC510
00000001DDA620
00000003200000
ENDCHAR
STARTCHAR Adieresis
ENCODING 196
SWIDTH 788 0
DWIDTH 9 0
BBX 13 13 -2 -3
BITMAP
00001414000000
00003C3B000000
00044430000000
00018EF3000000
000009FA000000
00002DCF300000
0000A65FA00000
0003FBAFF30000
000A8659FA0000
028E1001EF2000
289AA2009FC510
00000001DDA620
00000003200000
ENDCHAR
STARTCHAR Aring
ENCODING 197
SWIDTH 788 0
DWIDTH 9 0
BBX 13 13 -2 -3
BITMAP
00000140000000
00000A97000000
00044AD4000000
00018EF3000000
000009FA000000
00002DCF300000
0000A65FA00000
0003FBAFF20000
000A8659FA0000
028E1001EF2000
289AA2009FC510
00000001DDA620
00000003200000
ENDCHAR
STARTCHAR AE
ENCODING 198
SWIDTH 1019 0
DWIDTH 11 0
BBX 14 9 -3 -1
BITMAP
0000689ABBCDDB
000019FFFB426B
000003E8F90419
00000B75F93803
00006C05FEE802
0001EDCDFA8706
00098547F80447
039E204BFDAAD7
37899444433331
ENDCHAR
STARTCHAR Ccedilla
ENCODING 199
SWIDTH 766 0
DWIDTH 8 0
BBX 9 12 0 -4
BITMAP
0016861430
07EEBBEE10
4FD2005D00
AF70000600
BF50000000
9F70000200
3FD1001A00
06FE99EC00
002AC83210
000CC20000
0004960000
0009B10000
ENDCHAR
STARTCHAR Egrave
ENCODING 200
SWIDTH 781 0
DWIDTH 9 0
BBX 10 12 -1 -1
BITMAP
0000AA0000
00007F1000
0000171000
36789ABCD2
04AFB433F1
005FA050A1
004F92B030
003FEEB020
003FA7A070
002F8050C0
03AFDAABD0
1444333320
ENDCHAR
STARTCHAR Eacute
ENCODING 201
SWIDTH 781 0
DWIDTH 9 0
BBX 10 12 -1 -1
BITMAP
0000064000
00000E8000
00002B1000
36789ABCD2
04AFB433F1
005FA050A1
004F92B030
003FEEB020
003FA7A070
002F8050C0
03AFDAABD0
1444333320
ENDCHAR
STARTCHAR Ecircumflex
ENCODING 202
SWIDTH 781 0
DWIDTH 9 0
BBX 10 13 -1 -1
BITMAP
0000010000
00008C1000
0005ECA000
0004105000
36789ABCD2
04AFB433F1
005FA050A1
004F92B030
003FEEB020
003FA7A070
002F8050C0
03AFDAABD0
1444333320
ENDCHAR
STARTCHAR Edieresis
ENCODING 203
SWIDTH 781 0
DWIDTH 9 0
BBX 10 11 -1 -1
BITMAP
0001414000
0003C3B000
36789ABCD2
04AFB433F1
005FA050A1
004F92B030
003FEEB020
003FA7A070
002F8050C0
03AFDAABD0
1444333320
ENDCHAR
STARTCHAR Igrave
ENCODING 204
SWIDTH 445 0
DWIDTH 5 0
BBX 7 12 -1 -1
BITMAP
008C0000
005F2000
00071000
38888830
019FB100
006F8000
005F8000
004F8000
004F7000
003F7000
003F6000
16CED820
ENDCHAR
STARTCHAR Iacute
ENCODING 205
SWIDTH 445 0
DWIDTH 5 0
BBX 7 12 -1 -1
BITMAP
00046000
000AC000
000A3000
38888830
019FB100
006F8000
005F8000
004F8000
004F7000
003F7000
003F6000
16CED820
ENDCHAR
STARTCHAR Icircumflex
ENCODING 206
SWIDTH 445 0
DWIDTH 5 0
BBX 7 13 -1 -1
BITMAP
00010000
002E5000
01CBE200
01402200
38888830
019FB100
006F8000
005F8000
004F8000
004F7000
003F7000
003F6000
16CED820
ENDCHAR
STARTCHAR Idieresis
ENCODING 207
SWIDTH 445 0
DWIDTH 5 0
BBX 7 11 -1 -1
BITMAP
00404000
00C3D200
38888830
019FB100
006F8000
005F8000
004F8000
004F7000
003F7000
003F6000
16CED820
ENDCHAR
STARTCHAR Eth
ENCODING 208
SWIDTH 1000 0
DWIDTH 11 0
BBX 11 9 0 -1
BITMAP
355555420000
04AFFCBEC300
000DF401DE20
022CF3007F70
0EFFFFE06F80
033AF3108F60
0009F102DD10
006EFDEEA200
034432100000
ENDCHAR
STARTCHAR Ntilde
ENCODING 209
SWIDTH 840 0
DWIDTH 9 0
BBX 12 12 -1 -1
BITMAP
000087430000
0000CDF40000
000000100000
39CB939EED71
007FF801F100
004EFF50F100
004B6FE3F100
004C08FDF000
004C00AFF000
006D101CF000
3AEEEA42D000
000000002000
ENDCHAR
STARTCHAR Ograve
ENCODING 210
SWIDTH 808 0
DWIDTH 9 0
BBX 9 11 0 -1
BITMAP
0004E20000
0001E70000
0000530000
006ABA6000
1DF959FB00
9F8000AF70
BF40006FA0
AF60008F80
3ED204ED20
03BFFFA200
0000100000
ENDCHAR
STARTCHAR Oacute
ENCODING 211
SWIDTH 808 0
DWIDTH 9 0
BBX 9 11 0 -1
BITMAP
0000550000
0000CA0000
0001B20000
006ABA6000
1DF959FB00
9F8000AF70
BF40006FA0
AF60008F80
3ED204ED20
03BFFFA200
0000100000
ENDCHAR
STARTCHAR Ocircumflex
ENCODING 212
SWIDTH 808 0
DWIDTH 9 0
BBX 9 12 0 -1
BITMAP
0000100000
0003E30000
001DBD1000
0023032000
006ABA6000
1DF959FB00
9F8000AF70
BF40006FA0
AF60008F80
3ED204ED20
03BFFFA200
0000100000
ENDCHAR
STARTCHAR Otilde
ENCODING 213
SWIDTH 808 0
DWIDTH 9 0
BBX 9 11 0 -1
BITMAP
0008743000
000CDF4000
0000010000
006ABA6000
1DF959FB00
9F8000AF70
BF40006FA0
AF60008F80
3ED204ED20
03BFFFA200
0000100000
ENDCHAR
STARTCHAR Odieresis
ENCODING 214
SWIDTH 808 0
DWIDTH 9 0
BBX 9 11 0 -1
BITMAP
0004040000
001D3C0000
0000000000
006ABA6000
1DF959FB00
9F8000AF70
BF40006FA0
AF60008F80
3ED204ED20
03BFFFA200
0000100000
ENDCHAR
STARTCHAR multiply
ENCODING 215
SWIDTH 556 0
DWIDTH 6 0
BBX 6 7 0 0
BITMAP
170051
9F95FB
1CFFE3
05FF80
4FDBF5
7C10B8
010000
ENDCHAR
STARTCHAR Oslash
ENCODING 216
SWIDTH 808 0
DWIDTH 9 0
BBX 9 10 0 -2
BITMAP
000001B300
006ABCF600
1DF97FFC00
9F90AFBF70
BF43F76FA0
AF6CC08F80
3FEF34ED20
04FFEFA200
05D2100000
0010000000
ENDCHAR
STARTCHAR Ugrave
ENCODING 217
SWIDTH 725 0
DWIDTH 8 0
BBX 10 11 -1 -1
BITMAP
0000B80000
00009D0000
1000174332
29EC715EA1
01FE000C50
02FD000C50
02FD000B40
02FE000B30
00EF402E00
004EFCE500
0001431000
ENDCHAR
STARTCHAR Uacute
ENCODING 218
SWIDTH 725 0
DWIDTH 8 0
BBX 10 12 -1 -1
BITMAP
0000181000
00006F2000
0000670000
1000013332
29EC715EA1
01FE000C50
02FD000C50
02FD000B40
02FE000B30
00EF402E00
004EFCE500
0001431000
ENDCHAR
STARTCHAR Ucircumflex
ENCODING 219
SWIDTH 725 0
DWIDTH 8 0
BBX 10 12 -1 -1
BITMAP
0000010000
00008C1000
0005ECA000
1004118332
29EC715EA1
01FE000C50
02FD000C50
02FD000B40
02FE000B30
00EF402E00
004EFCE500
0001431000
ENDCHAR
STARTCHAR Udieresis
ENCODING 220
SWIDTH 725 0
DWIDTH 8 0
BBX 10 11 -1 -1
BITMAP
0001414000
0003C3B000
1000013332
29EC715EA1
01FE000C50
02FD000C50
02FD000B40
02FE000B30
00EF402E00
004EFCE500
0001431000
ENDCHAR
STARTCHAR Yacute
ENCODING 221
SWIDTH 848 0
DWIDTH 9 0
BBX 12 12 -2 -1
BITMAP
000000073000
0000001F6000
0000003B0000
000012100000
16CFF8026654
0005FC106D61
00006FA2C200
000008FE3000
000000E90000
000000FB0000
000001FD1000
00004ABBA610
ENDCHAR
STARTCHAR Thorn
ENCODING 222
SWIDTH 745 0
DWIDTH 8 0
BBX 10 9 -1 -1
BITMAP
1000000000
29FFD71000
007FA86300
006FA79DC1
006F5005F3
006FA8BD60
006FB52000
04CFD61000
2555443000
ENDCHAR
STARTCHAR germandbls
ENCODING 223
SWIDTH 986 0
DWIDTH 11 0
BBX 12 16 -1 -5
BITMAP
000002100000
0002DEEA1000
000CA01C8000
003F4007D000
005F4008E000
07AF501E9000
068F708F1000
001F90CC0000
000EB0BF9200
000CC02BFFB2
000AE0724BFD
0009F1AD64EB
2608F1849A71
7F19D0100000
2EAE50000000
015300000000
ENDCHAR
STARTCHAR agrave
ENCODING 224
SWIDTH 572 0
DWIDTH 6 0
BBX 7 10 0 -1
BITMAP
000B8000
0009D000
00026000
1ADDC200
6F30E900
2943DB00
7F88FA00
AF34F900
28ACFB20
00013320
ENDCHAR
STARTCHAR aacute
ENCODING 225
SWIDTH 572 0
DWIDTH 6 0
BBX 7 11 0 -1
BITMAP
00046000
000AC000
000A3000
00010000
1ADDC200
6F30E900
2943DB00
7F88FA00
AF34F900
28ACFB20
00013320
ENDCHAR
STARTCHAR acircumflex
ENCODING 226
SWIDTH 572 0
DWIDTH 6 0
BBX 7 11 0 -1
BITMAP
00010000
002E4000
01CBE200
01412200
1ADDC200
6F30E900
2943DB00
7F88FA00
AF34F900
28ACFB20
00013320
ENDCHAR
STARTCHAR atilde
ENCODING 227
SWIDTH 572 0
DWIDTH 6 0
BBX 7 10 0 -1
BITMAP
00774300
00CDF500
00111000
1ADDC200
6F30E900
2943DB00
7F88FA00
AF34F900
28ACFB20
00013320
ENDCHAR
STARTCHAR adieresis
ENCODING 228
SWIDTH 572 0
DWIDTH 6 0
BBX 7 10 0 -1
BITMAP
00414000
02C3C000
00010000
1ADDC200
6F30E900
2943DB00
7F88FA00
AF34F900
28ACFB20
00013320
ENDCHAR
STARTCHAR aring
ENCODING 229
SWIDTH 572 0
DWIDTH 6 0
BBX 7 10 0 -1
BITMAP
00020000
005B9000
005C8000
19DDD200
6F30E900
2943DB00
7F88FA00
AF34F900
28ACFB20
00013320
ENDCHAR
STARTCHAR ae
ENCODING 230
SWIDTH 1022 0
DWIDTH 11 0
BBX 12 8 0 -1
BITMAP
001100000000
2BCEA149A600
AE02FCF75E90
3943FFE66BF0
AE89FFE76661
ED27FAFA7840
39ADF9377300
000232100000
ENDCHAR
STARTCHAR ccedilla
ENCODING 231
SWIDTH 589 0
DWIDTH 6 0
BBX 7 10 0 -4
BITMAP
00365000
09E9DC00
6F609F20
AF300200
8F600330
2EF99C00
019D8100
008D4000
0036A000
006B3000
ENDCHAR
STARTCHAR egrave
ENCODING 232
SWIDTH 593 0
DWIDTH 7 0
BBX 7 9 0 -1
BITMAP
001C7000
000BC000
00035000
05DFD400
4F81AE10
9F98AF50
8F866620
2EC66700
028A6000
ENDCHAR
STARTCHAR eacute
ENCODING 233
SWIDTH 593 0
DWIDTH 7 0
BBX 7 10 0 -1
BITMAP
00055000
000CA000
000B2000
00000000
05DFD400
4F81AE10
9F98AF50
8F866620
2EC66700
028A6000
ENDCHAR
STARTCHAR ecircumflex
ENCODING 234
SWIDTH 593 0
DWIDTH 7 0
BBX 7 10 0 -1
BITMAP
00010000
002E4000
01CBE200
01402200
05DFD400
4F81AE10
9F98AF50
8F866620
2EC66700
028A6000
ENDCHAR
STARTCHAR edieresis
ENCODING 235
SWIDTH 593 0
DWIDTH 7 0
BBX 7 9 0 -1
BITMAP
00414100
00B4C300
00000000
05DFD400
4F81AE10
9F98AF50
8F866620
2EC66700
028A6000
ENDCHAR
STARTCHAR igrave
ENCODING 236
SWIDTH 393 0
DWIDTH 4 0
BBX 5 9 0 0
BITMAP
08C000
05F200
007100
6AB600
05F800
03F700
03F500
02F400
4DFD40
ENDCHAR
STARTCHAR iacute
ENCODING 237
SWIDTH 393 0
DWIDTH 4 0
BBX 5 10 0 0
BITMAP
005500
00CA00
00B200
000000
6AB600
05F800
03F700
03F500
02F400
4DFD40
ENDCHAR
STARTCHAR icircumflex
ENCODING 238
SWIDTH 393 0
DWIDTH 4 0
BBX 5 10 0 0
BITMAP
001000
03E300
1DBD10
230320
6AB600
05F800
03F700
03F500
02F400
4DFD40
ENDCHAR
STARTCHAR idieresis
ENCODING 239
SWIDTH 393 0
DWIDTH 4 0
BBX 5 9 0 0
BITMAP
041410
0B4C30
000000
6AB600
05F800
03F700
03F500
02F400
4DFD40
ENDCHAR
STARTCHAR eth
ENCODING 240
SWIDTH 672 0
DWIDTH 7 0
BBX 9 10 -1 -1
BITMAP
0026104600
0002BAE500
0006EF7000
001D76F400
000244EC00
03CEACFF30
0ED1009F50
1FB0006F50
0CE201BD10
019DDDA200
ENDCHAR
STARTCHAR ntilde
ENCODING 241
SWIDTH 643 0
DWIDTH 7 0
BBX 9 9 -1 0
BITMAP
0005845000
0009BF9000
0000010000
49BE9BA200
03CF97FA00
008F00BC00
007D00AA00
04AB62CB00
0000155530
ENDCHAR
STARTCHAR ograve
ENCODING 242
SWIDTH 705 0
DWIDTH 8 0
BBX 8 10 0 -1
BITMAP
000AA000
0007F100
00017100
00133100
1AEBBE80
AF3006F7
DE0003F9
9F4008F5
08DCDC50
00010000
ENDCHAR
STARTCHAR oacute
ENCODING 243
SWIDTH 705 0
DWIDTH 8 0
BBX 8 10 0 -1
BITMAP
00027100
0007E100
00076000
00133100
1AEBBE80
AF3006F7
DE0003F9
9F4008F5
08DCDC50
00010000
ENDCHAR
STARTCHAR ocircumflex
ENCODING 244
SWIDTH 705 0
DWIDTH 8 0
BBX 8 10 0 -1
BITMAP
00001000
000AB000
007DD800
00543500
1AEBBE80
AF3006F7
DE0003F9
9F4008F5
08DCDC50
00010000
ENDCHAR
STARTCHAR otilde
ENCODING 245
SWIDTH 705 0
DWIDTH 8 0
BBX 8 9 0 -1
BITMAP
00484500
008BFB00
00133100
1AEBBE80
AF3006F7
DE0003F9
9F4008F5
08DCDC50
00010000
ENDCHAR
STARTCHAR odieresis
ENCODING 246
SWIDTH 705 0
DWIDTH 8 0
BBX 8 9 0 -1
BITMAP
00232300
00596900
00133100
1AEBBE80
AF3006F7
DE0003F9
9F4008F5
08DCDC50
00010000
ENDCHAR
STARTCHAR divide
ENCODING 247
SWIDTH 504 0
DWIDTH 6 0
BBX 6 8 0 -1
BITMAP
002200
02FE00
007600
DDDCB5
9A9983
01A700
03FC00
001000
ENDCHAR
STARTCHAR oslash
ENCODING 248
SWIDTH 705 0
DWIDTH 8 0
BBX 8 9 0 -2
BITMAP
00000620
00134F90
1AEBEF80
AF34FBF6
DE0DB3F9
8FAF28F5
09FEDC50
08D10000
01200000
ENDCHAR
STARTCHAR ugrave
ENCODING 249
SWIDTH 614 0
DWIDTH 7 0
BBX 9 10 -1 -1
BITMAP
0008C00000
0005F20000
0000710000
4663333200
08F619F800
05F403F500
05F403F300
03F607F100
009FEDF710
0000126300
ENDCHAR
STARTCHAR uacute
ENCODING 250
SWIDTH 614 0
DWIDTH 7 0
BBX 9 10 -1 -1
BITMAP
0000640000
0000E80000
0001B10000
4663333200
08F619F800
05F403F500
05F403F300
03F607F100
009FEDF710
0000126300
ENDCHAR
STARTCHAR ucircumflex
ENCODING 251
SWIDTH 614 0
DWIDTH 7 0
BBX 9 11 -1 -1
BITMAP
0000100000
0003E30000
001DBD1000
0023032000
4663333200
08F619F800
05F403F500
05F403F300
03F607F100
009FEDF710
0000126300
ENDCHAR
STARTCHAR udieresis
ENCODING 252
SWIDTH 614 0
DWIDTH 7 0
BBX 9 9 -1 -1
BITMAP
0004140000
002C3C0000
4663333200
08F619F800
05F403F500
05F403F300
03F607F100
009FEDF710
0000126300
ENDCHAR
STARTCHAR yacute
ENCODING 253
SWIDTH 655 0
DWIDTH 7 0
BBX 8 14 -1 -5
BITMAP
00006400
0000E800
0001B100
29404532
05FD08FD
06F901FC
09F601FC
06FC56FB
007BBAFA
000002FA
001003F9
06F105F6
05E21CE1
007DDA20
ENDCHAR
STARTCHAR thorn
ENCODING 254
SWIDTH 734 0
DWIDTH 8 0
BBX 10 13 -1 -5
BITMAP
4999300000
02BF600000
006F600000
006F600000
006FA88400
005FA58F90
005F6008F2
004F6009F1
004FC8AF80
003F966300
003F700000
007FB20000
1677651000
ENDCHAR
STARTCHAR ydieresis
ENCODING 255
SWIDTH 655 0
DWIDTH 7 0
BBX 8 14 -1 -5
BITMAP
00041400
002C3C00
00000000
29404532
05FD08FD
06F901FC
09F601FC
06FC56FB
007BBAFA
000002FA
001003F9
06F105F6
05E21CE1
007DDA20
ENDCHAR
STARTCHAR dotlessi
ENCODING 305
SWIDTH 393 0
DWIDTH 4 0
BBX 5 6 0 0
BITMAP
6AB600
05F800
03F700
03F500
02F400
4DFD40
ENDCHAR
STARTCHAR Lslash
ENCODING 321
SWIDTH 713 0
DWIDTH 8 0
BBX 9 9 -1 0
BITMAP
3899A95000
007FD20000
004FB20000
003FFF4000
04BFE71030
0ACFB00090
001FA003B0
002FC54AB0
17CCBBA970
ENDCHAR
STARTCHAR lslash
ENCODING 322
SWIDTH 365 0
DWIDTH 4 0
BBX 6 11 -1 -1
BITMAP
566610
05EF20
00CF10
00CF32
00BFF7
4DFF40
2BCE00
009D00
008D00
009D10
07CB91
ENDCHAR
STARTCHAR OE
ENCODING 338
SWIDTH 1195 0
DWIDTH 13 0
BBX 13 9 0 -1
BITMAP
000046789BCDA0
001225CFA427A0
1AEBDCAF804190
9F301DFF847030
DD0009FFEE7020
BE100BFF997160
2EB69FBF704560
016877CFCAAD60
00003444333310
ENDCHAR
STARTCHAR oe
ENCODING 339
SWIDTH 1087 0
DWIDTH 12 0
BBX 12 6 0 -1
BITMAP
08DDD839CB50
9E303FFC48F5
DB000CF966FB
AE102EFA8776
19DBE9ED6572
00010017A820
ENDCHAR
STARTCHAR Scaron
ENCODING 352
SWIDTH 661 0
DWIDTH 7 0
BBX 8 13 0 -1
BITMAP
00100100
01D7C600
003F9000
00041000
00220030
2CDBEAC0
CF1018C0
CFD84040
2CFFFD40
2126CFE1
49000EF1
5BDACE60
40144100
ENDCHAR
STARTCHAR scaron
ENCODING 353
SWIDTH 533 0
DWIDTH 6 0
BBX 6 12 0 -1
BITMAP
010010
07B8C0
00BE20
001300
036403
6E8BC7
BD3066
5FFD72
439EF9
9A21EB
99DEC3
100000
ENDCHAR
STARTCHAR Ydieresis
ENCODING 376
SWIDTH 848 0
DWIDTH 9 0
BBX 12 11 -2 -1
BITMAP
000002232000
000007887000
000012100000
16CFF8026654
0005FC106D61
00006FA2C200
000008FE3000
000000E90000
000000FB0000
000001FD1000
00004ABBA610
ENDCHAR
STARTCHAR Zcaron
ENCODING 381
SWIDTH 685 0
DWIDTH 8 0
BBX 8 11 0 0
BITMAP
00100100
009A9A00
001CD100
00022000
6899AAA7
9B66BFD1
4604FF30
133EF603
01DF9055
0CFD32D4
7CCCCCC3
ENDCHAR
STARTCHAR zcaron
ENCODING 382
SWIDTH 549 0
DWIDTH 6 0
BBX 7 11 0 -1
BITMAP
01001000
06C7D100
009F3000
00040000
79AABB20
994AF800
734FC000
22EE2500
1CF51B00
7EFEED00
00012200
ENDCHAR
STARTCHAR circumflex
ENCODING 710
SWIDTH 714 0
DWIDTH 8 0
BBX 5 4 2 7
BITMAP
001000
05E200
2EBC10
320410
ENDCHAR
STARTCHAR caron
ENCODING 711
SWIDTH 714 0
DWIDTH 8 0
BBX 5 4 2 7
BITMAP
000100
4C7D10
08F400
004000
ENDCHAR
STARTCHAR breve
ENCODING 728
SWIDTH 715 0
DWIDTH 8 0
BBX 5 3 2 8
BITMAP
110100
3D8C10
07C400
ENDCHAR
STARTCHAR dotaccent
ENCODING 729
SWIDTH 708 0
DWIDTH 8 0
BBX 2 2 3 9
BITMAP
32
96
ENDCHAR
STARTCHAR ring
ENCODING 730
SWIDTH 704 0
DWIDTH 8 0
BBX 3 4 3 7
BITMAP
0200
AB50
9C40
0100
ENDCHAR
STARTCHAR ogonek
ENCODING 731
SWIDTH 988 0
DWIDTH 11 0
BBX 5 4 3 -2
BITMAP
140000
6B0000
5FBB30
034100
ENDCHAR
STARTCHAR tilde
ENCODING 732
SWIDTH 707 0
DWIDTH 8 0
BBX 4 2 2 8
BITMAP
2856
5BEE
ENDCHAR
STARTCHAR hungarumlaut
ENCODING 733
SWIDTH 671 0
DWIDTH 7 0
BBX 4 3 2 8
BITMAP
2755
8ECB
86B3
ENDCHAR
STARTCHAR endash
ENCODING 8211
SWIDTH 576 0
DWIDTH 6 0
BBX 6 2 0 3
BITMAP
4DDDE9
39AAA7
ENDCHAR
STARTCHAR emdash
ENCODING 8212
SWIDTH 993 0
DWIDTH 11 0
BBX 11 2 0 3
BITMAP
4BBBBBCCCC30
4BBBBCCCCC30
ENDCHAR
STARTCHAR quoteleft
ENCODING 8216
SWIDTH 261 0
DWIDTH 3 0
BBX 3 4 0 4
BITMAP
0A60
5F70
9F20
0200
ENDCHAR
STARTCHAR quoteright
ENCODING 8217
SWIDTH 301 0
DWIDTH 3 0
BBX 3 4 0 4
BITMAP
0B60
4F90
8E20
0200
ENDCHAR
STARTCHAR quotesinglbase
ENCODING 8218
SWIDTH 332 0
DWIDTH 4 0
BBX 3 4 0 -1
BITMAP
0400
1FB0
6F50
4900
ENDCHAR
STARTCHAR quotedblleft
ENCODING 8220
SWIDTH 477 0
DWIDTH 5 0
BBX 5 4 0 4
BITMAP
0A65A0
5F8DD0
9F6E70
020110
ENDCHAR
STARTCHAR quotedblright
ENCODING 8221
SWIDTH 477 0
DWIDTH 5 0
BBX 5 4 0 4
BITMAP
2B4A70
7F7FB0
BC6F30
120300
ENDCHAR
STARTCHAR quotedblbase
ENCODING 8222
SWIDTH 477 0
DWIDTH 5 0
BBX 5 4 0 -1
BITMAP
040310
4F8ED0
9F6F70
673A10
ENDCHAR
STARTCHAR dagger
ENCODING 8224
SWIDTH 487 0
DWIDTH 5 0
BBX 6 14 0 -4
BITMAP
002200
02FA00
01FA00
69FC51
BFFFF1
22F900
00F900
00F800
00F800
00E800
00E700
00E700
00D700
003100
ENDCHAR
STARTCHAR daggerdbl
ENCODING 8225
SWIDTH 497 0
DWIDTH 5 0
BBX 6 14 0 -4
BITMAP
002200
02FA00
01FA00
69FC51
BFFFF1
22F900
8BFED1
7BFEC2
00F800
00E800
00E700
00E700
00D700
003100
ENDCHAR
STARTCHAR bullet
ENCODING 8226
SWIDTH 275 0
DWIDTH 3 0
BBX 3 4 0 2
BITMAP
4A40
EFE0
CFC0
1410
ENDCHAR
STARTCHAR ellipsis
ENCODING 8230
SWIDTH 787 0
DWIDTH 9 0
BBX 9 2 0 -1
BITMAP
8D27D36D40
9E38E47E50
ENDCHAR
STARTCHAR perthousand
ENCODING 8240
SWIDTH 888 0
DWIDTH 10 0
BBX 11 10 0 -1
BITMAP
000035100000
9EC1AE000000
E3E5F8000000
7DA7F1000000
000DA0000000
004F30000000
00AB6CA7C900
01F5E5DF3F20
07D09DDBDC00
034001001000
ENDCHAR
STARTCHAR guilsinglleft
ENCODING 8249
SWIDTH 234 0
DWIDTH 3 0
BBX 3 7 0 -1
BITMAP
0110
0950
5E00
CA00
4E10
0850
0010
ENDCHAR
STARTCHAR guilsinglright
ENCODING 8250
SWIDTH 223 0
DWIDTH 2 0
BBX 3 7 0 -1
BITMAP
2000
B300
6D10
1F60
7C00
B200
1000
ENDCHAR
STARTCHAR fraction
ENCODING 8260
SWIDTH 600 0
DWIDTH 7 0
BBX 8 12 -1 -2
BITMAP
00000010
000002E6
00000AF8
00004FD1
0000CF40
0006FA00
001EE200
009F7000
03FC0000
0BF30000
2E900000
01100000
ENDCHAR
STARTCHAR Euro
ENCODING 8364
SWIDTH 590 0
DWIDTH 7 0
BBX 8 8 -1 0
BITMAP
00002200
001BDDB1
00CC03F6
4CFDA361
29FB7400
27EF9725
006FDAC1
00037610
ENDCHAR
STARTCHAR trademark
ENCODING 8482
SWIDTH 624 0
DWIDTH 7 0
BBX 7 6 0 3
BITMAP
01000000
27000000
BA200000
846CB960
94387290
38235330
ENDCHAR
STARTCHAR minus
ENCODING 8722
SWIDTH 549 0
DWIDTH 6 0
BBX 6 3 0 2
BITMAP
ABA997
DFFFFD
221100
ENDCHAR
STARTCHAR fi
ENCODING 64257
SWIDTH 757 0
DWIDTH 8 0
BBX 10 16 -1 -5
BITMAP
0000686000
000AC6DD10
003F406F60
006F309F80
007F301510
07AFA88950
068FB79F80
002F904F70
000FB03F50
000DC02F40
000BE4CFD4
0009F10000
2608F10000
7F19E00000
2E9E600000
0153000000
ENDCHAR
STARTCHAR fl
ENCODING 64258
SWIDTH 776 0
DWIDTH 9 0
BBX 10 16 -1 -5
BITMAP
0000697100
000AC6DC10
003F405F60
006F303F90
006F302FA0
07AFA83F90
068FB72F90
002F900F90
000FB00F80
000DC00E70
000BE01E80
0009F3ABB6
2608F10000
7F19E00000
2E9E600000
0153000000
ENDCHAR
STARTCHAR .notdef
ENCODING -1
SWIDTH 320 0
DWIDTH 4 0
BBX 1 1 0 0
BITMAP
00
ENDCHAR
ENDFONT
